<?xml version="1.0" encoding="utf-8"?>
<!-- Svg Vector Icons : http://www.onlinewebfonts.com/icon -->
<!DOCTYPE svg PUBLIC "-//W3C//DTD SVG 1.1//EN" "http://www.w3.org/Graphics/SVG/1.1/DTD/svg11.dtd">
<svg version="1.1" xmlns="http://www.w3.org/2000/svg" xmlns:xlink="http://www.w3.org/1999/xlink" x="0px" y="0px" viewBox="0 0 256 256" enable-background="new 0 0 256 256" xml:space="preserve">
<metadata> Svg Vector Icons : http://www.onlinewebfonts.com/icon </metadata>
<g><g><g><path fill="#000000" d="M128,246c65.2,0,118-52.8,118-118c0-65.2-52.8-118-118-118C62.8,10,10,62.8,10,128C10,193.2,62.8,246,128,246z M143.1,76.5l57.1,52.3c4.7,4.4,7.2,10.3,7.2,16.3c0,5.3-1.9,10.7-5.8,14.9c-8.2,9-22.2,9.6-31.2,1.4l-42.2-38.7l-43.4,39.9c-9,8.2-22.9,7.6-31.2-1.3c-8.2-9-7.6-22.9,1.3-31.2l58.4-53.5C121.8,68.8,134.7,68.8,143.1,76.5z"/></g><g></g><g></g><g></g><g></g><g></g><g></g><g></g><g></g><g></g><g></g><g></g><g></g><g></g><g></g><g></g></g></g>
</svg>